<svg width="125" height="101" viewBox="0 0 125 101" fill="none" xmlns="http://www.w3.org/2000/svg">
<path d="M35.1304 0H18.7362C18.6444 0 18.5985 0 18.5066 0C13.3633 0.964364 9.27627 5.05143 8.3119 10.1947C8.3119 10.2866 8.3119 10.3325 8.3119 10.4243V38.3909C7.80676 40.8707 5.83211 42.8913 3.35231 43.4423H3.26047H1.14805C0.505143 43.4423 0 43.9475 0 44.5904V56.0709C0 56.7138 0.505143 57.219 1.14805 57.219H3.35231C5.83211 57.77 7.80676 59.7906 8.26598 62.2704V62.3622V90.191C8.26598 90.2829 8.26598 90.3288 8.26598 90.4206C9.23034 95.5639 13.3174 99.651 18.4607 100.615C18.5525 100.615 18.5985 100.615 18.6903 100.615H35.0845C35.7274 100.615 36.2325 100.11 36.2325 99.4673V89.1807C36.2325 88.5378 35.7274 88.0327 35.0845 88.0327H25.5786C23.4203 87.6194 21.6293 86.104 20.8486 84.0375V57.5863C20.8486 57.4945 20.8486 57.4486 20.8486 57.3567C20.3435 54.6473 18.9199 52.1675 16.8993 50.2847C18.9658 48.4019 20.3435 45.9221 20.8486 43.2127C20.8486 43.1209 20.8486 43.0749 20.8486 42.9831V16.5779C21.6293 14.5114 23.4662 12.996 25.6245 12.5827H25.7164H35.0845C35.7274 12.5827 36.2325 12.0775 36.2325 11.4346V1.14805C36.2785 0.505143 35.7733 0 35.1304 0Z" fill="#FF0000"/>
<path d="M123.852 43.4423H121.648C119.168 42.8913 117.193 40.8707 116.734 38.3909V38.299V10.4243C116.734 10.3325 116.734 10.2866 116.734 10.1947C115.724 5.09735 111.637 0.964364 106.493 0C106.402 0 106.356 0 106.264 0H89.8696C89.2267 0 88.7215 0.505143 88.7215 1.14805V11.4346C88.7215 12.0775 89.2267 12.5827 89.8696 12.5827H99.3755C101.534 12.996 103.325 14.5114 104.105 16.5779V43.029C104.105 43.1209 104.105 43.1668 104.105 43.2586C104.611 45.968 106.034 48.4478 108.055 50.3306C105.988 52.2134 104.611 54.6932 104.105 57.4026C104.105 57.4945 104.105 57.5404 104.105 57.6323V84.0834C103.325 86.1499 101.488 87.6653 99.3295 88.0786H99.2377H89.8696C89.2267 88.0786 88.7215 88.5838 88.7215 89.2267V99.5132C88.7215 100.156 89.2267 100.661 89.8696 100.661H106.264C106.356 100.661 106.402 100.661 106.493 100.661C111.637 99.6969 115.724 95.6098 116.688 90.4666C116.688 90.3747 116.688 90.3288 116.688 90.237V62.2704C117.193 59.7906 119.168 57.77 121.648 57.219H121.74H123.806C124.449 57.219 124.954 56.7138 124.954 56.0709V44.5904C125 43.9475 124.495 43.4423 123.852 43.4423Z" fill="#FF0000"/>
<path d="M92.2116 24.0632H84.1293C83.3486 24.0632 82.6598 24.5683 82.3843 25.3031V56.3924L60.0661 24.5224C59.7447 24.2469 59.2855 24.0632 58.8722 24.0632H48.9989C47.9886 24.0632 47.162 24.8898 47.162 25.9001C47.162 26.0838 47.2079 26.3134 47.2539 26.4971L81.971 76.0929C82.2924 76.4144 82.7517 76.5522 83.2109 76.5522H92.2116C93.2219 76.5522 94.0485 75.7256 94.0485 74.7153V25.9001C94.0485 24.8898 93.2219 24.0632 92.2116 24.0632Z" fill="#FFC700"/>
<path d="M75.0367 40.5033C76.047 40.5033 76.8736 39.6767 76.8736 38.6664V25.9001C76.8736 24.8898 76.047 24.0632 75.0367 24.0632H67.0922C66.0819 24.0632 65.2553 24.8898 65.2553 25.9001V27.737L73.8427 40.0441C74.1642 40.3196 74.6234 40.5033 75.0367 40.5033Z" fill="#FFC700"/>
<path d="M41.7432 24.0632H32.7884C31.7781 24.0632 30.9515 24.8898 30.9515 25.9001V74.7612C30.9515 75.7715 31.7781 76.5981 32.7884 76.5981H40.9625C41.7432 76.5981 42.432 76.047 42.6157 75.2663V44.4067L64.7502 76.0011C65.1176 76.4144 65.5768 76.5981 66.1278 76.5981H75.0827C76.0929 76.5981 76.9195 75.7715 76.9195 74.7612V73.0162L65.2094 56.3464L64.3828 55.1984L42.9372 24.5224C42.6157 24.201 42.2024 24.0632 41.7432 24.0632Z" fill="#FFC700"/>
</svg>
